<svg width="32" height="33" viewBox="0 0 32 33" fill="none" xmlns="http://www.w3.org/2000/svg">
<path d="M20 9.83331C20.7072 9.83331 21.3855 10.1143 21.8856 10.6144C22.3857 11.1145 22.6667 11.7927 22.6667 12.5M28 12.5C28.0004 13.7495 27.708 14.9818 27.1464 16.098C26.5847 17.2143 25.7694 18.1834 24.7658 18.9278C23.7622 19.6722 22.5981 20.1712 21.3669 20.3847C20.1358 20.5982 18.8717 20.5203 17.676 20.1573L14.6667 23.1666H12V25.8333H9.33333V28.5H5.33333C4.97971 28.5 4.64057 28.3595 4.39052 28.1095C4.14048 27.8594 4 27.5203 4 27.1666V23.7186C4.00008 23.3651 4.1406 23.026 4.39067 22.776L12.3427 14.824C12.0099 13.724 11.9181 12.5652 12.0734 11.4266C12.2287 10.2879 12.6275 9.19607 13.2427 8.22537C13.8578 7.25467 14.6749 6.42791 15.6383 5.80134C16.6016 5.17477 17.6887 4.76311 18.8254 4.59439C19.9622 4.42566 21.122 4.50382 22.2258 4.82356C23.3296 5.14329 24.3516 5.69709 25.2222 6.44726C26.0928 7.19744 26.7915 8.12637 27.2709 9.17083C27.7502 10.2153 27.9989 11.3508 28 12.5Z" stroke="white" stroke-width="2" stroke-linecap="round" stroke-linejoin="round"/>
</svg>
